<?xml version="1.0" encoding="UTF-8" standalone="no"?>
<!-- Created with Inkscape (http://www.inkscape.org/) -->

<svg
   width="134.53665mm"
   height="167.88831mm"
   viewBox="0 0 134.53665 167.88831"
   version="1.1"
   id="svg1"
   xml:space="preserve"
   inkscape:version="1.3 (0e150ed, 2023-07-21)"
   sodipodi:docname="logo-palyground.svg"
   xmlns:inkscape="http://www.inkscape.org/namespaces/inkscape"
   xmlns:sodipodi="http://sodipodi.sourceforge.net/DTD/sodipodi-0.dtd"
   xmlns="http://www.w3.org/2000/svg"
   xmlns:svg="http://www.w3.org/2000/svg"><sodipodi:namedview
     id="namedview1"
     pagecolor="#ffffff"
     bordercolor="#000000"
     borderopacity="0.25"
     inkscape:showpageshadow="2"
     inkscape:pageopacity="0.0"
     inkscape:pagecheckerboard="0"
     inkscape:deskcolor="#d1d1d1"
     inkscape:document-units="mm"
     inkscape:zoom="0.35213222"
     inkscape:cx="374.8592"
     inkscape:cy="1172.8549"
     inkscape:window-width="1504"
     inkscape:window-height="1051"
     inkscape:window-x="170"
     inkscape:window-y="38"
     inkscape:window-maximized="0"
     inkscape:current-layer="layer1" /><defs
     id="defs1" /><g
     inkscape:label="Layer 1"
     inkscape:groupmode="layer"
     id="layer1"
     transform="translate(-25.711915,-49.054888)"><path
       id="path1"
       style="fill:#000000;fill-opacity:1"
       d="M 93.248572,49.054887 92.604167,54.7703 92.346818,55.145988 89.05658,55.10258 c -1.80963,-0.02395 -4.965192,-0.95417 -7.012492,-2.067058 -5.500235,-2.989907 -7.820417,-2.886733 -12.851412,0.571542 -7.172645,4.930403 -9.958316,5.789735 -13.491683,4.16202 -4.338823,-1.998724 -7.393152,-2.142703 -10.247953,-0.482141 -7.024537,4.085973 -9.373599,8.213337 -3.705201,6.510196 5.106229,-1.534236 8.041459,-0.844254 12.771314,3.002401 6.288776,5.114461 10.912361,5.046482 15.925643,-0.234611 2.298013,-2.420751 6.266056,-4.435671 8.29045,-4.209562 0.792893,0.08856 3.743728,1.92042 6.557739,4.070553 l 5.116484,3.909322 0.395841,0.384472 -0.26355,2.336809 -0.621667,4.980057 -0.965316,-0.05168 c -11.51272,-0.615677 -19.933475,1.824641 -24.644491,7.141683 -3.163877,3.570874 -4.311326,6.447405 -4.977474,12.478308 -0.47947,4.337839 -0.417212,5.566349 0.430465,8.521969 1.083375,3.77738 3.920384,7.57578 7.659481,10.25622 1.236729,0.88658 2.373744,1.74541 2.526978,1.90841 0.21584,0.22957 -0.279186,0.43055 -2.196766,0.89193 -10.63113,2.55792 -16.887559,9.72685 -18.138944,20.78375 -0.689989,6.09651 0.370177,10.95112 3.489193,15.9737 4.187679,6.74339 13.4066,12.08453 24.354069,14.10973 l 2.141471,0.39636 -0.489376,4.96869 -0.993738,9.24543 c -15.746784,-1.18118 -34.282076,-1.72598 -51.039262,-5.24619 -9.360199,-2.9815 32.279053,27.64446 38.5377,33.38711 1.175025,3.66347 -13.008994,-1.51254 -15.98197,3.78116 38.350737,0.17773 68.819487,0.53866 107.141777,0.25477 -2.812,-4.95515 -4.90241,-1.20796 -10.15183,-3.14141 4.96217,-6.31073 10.09839,-12.44733 13.49737,-20.32124 1.76891,-1.65898 -14.85054,2.55941 -36.6541,0.72398 l 1.50637,-13.48858 0.5488,-4.91236 8.70231,0.91054 8.7018,0.91105 0.87126,-7.79642 0.87075,-7.79642 -5.93039,-0.72451 -5.92987,-0.7245 c 0,0 -9.4896,-19.53976 -8.58397,-29.75891 1.01917,-11.50041 15.39493,-31.220318 15.39493,-31.220318 l 5.94382,0.602038 5.94331,0.60151 0.87075,-7.79591 0.87126,-7.796424 -8.68888,-1.031461 -8.68887,-1.031462 0.55035,-4.927348 2.08721,-18.685681 -8.39535,-0.937927 -8.39535,-0.93741 -2.08825,18.692399 -0.55087,4.933549 -6.16965,-0.750859 -6.17016,-0.750858 0.47955,-4.880323 2.56471,-23.901383 -8.26617,-0.923458 z m 3.115572,123.496333 6.183606,0.62891 6.1836,0.6289 -0.54881,4.91133 -1.42782,12.78475 c -4.06202,-0.95253 -8.180636,-2.18048 -12.293819,-3.73001 l 1.232483,-10.30686 z" /></g></svg>
