<?xml version="1.0" encoding="UTF-8" standalone="no"?>
<!-- Created with Inkscape (http://www.inkscape.org/) -->

<svg
   width="32"
   height="32"
   viewBox="0 0 210 297"
   version="1.1"
   id="svg1"
   xml:space="preserve"
   inkscape:version="1.3 (0e150ed, 2023-07-21)"
   sodipodi:docname="logo.svg"
   xmlns:inkscape="http://www.inkscape.org/namespaces/inkscape"
   xmlns:sodipodi="http://sodipodi.sourceforge.net/DTD/sodipodi-0.dtd"
   xmlns="http://www.w3.org/2000/svg"
   xmlns:svg="http://www.w3.org/2000/svg"><sodipodi:namedview
     id="namedview1"
     pagecolor="#ffffff"
     bordercolor="#000000"
     borderopacity="0.25"
     inkscape:showpageshadow="2"
     inkscape:pageopacity="0.0"
     inkscape:pagecheckerboard="0"
     inkscape:deskcolor="#d1d1d1"
     inkscape:document-units="mm"
     inkscape:zoom="0.56354562"
     inkscape:cx="569.60784"
     inkscape:cy="196.07996"
     inkscape:window-width="1728"
     inkscape:window-height="1080"
     inkscape:window-x="0"
     inkscape:window-y="37"
     inkscape:window-maximized="0"
     inkscape:current-layer="layer1" /><defs
     id="defs1" /><g
     inkscape:label="Layer 1"
     inkscape:groupmode="layer"
     id="layer1"><rect
       style="fill:#ffffff;fill-opacity:1;stroke-width:5.9;stroke-linecap:round"
       id="rect5"
       width="271.92914"
       height="253.60768"
       x="-100.28593"
       y="321.10782" /><path
       style="fill:#000000"
       d="m 283.36586,-68.81103 c 0.41684,-0.50227 1.56392,-0.49795 2.23338,0.008 0.47055,0.35591 0.38469,0.38846 -1.02458,0.38846 -1.33727,0 -1.49516,-0.0518 -1.2088,-0.39687 z m -3.43958,-1.05833 c 0,-0.57327 0.20158,-1.12763 0.52916,-1.45521 0.63619,-0.63619 2.38125,-0.74484 2.38125,-0.14827 0,0.24917 -0.34315,0.40931 -0.99219,0.46302 -0.9383,0.0777 -0.99664,0.136 -1.0743,1.07431 -0.11,1.32911 -0.84392,1.38663 -0.84392,0.0661 z m 8.73125,0.28622 c 0,-1.14895 -0.27064,-1.47685 -1.21894,-1.47685 -0.62159,0 -0.89773,-0.12208 -0.89773,-0.39687 0,-0.61187 1.73339,-0.51557 2.38125,0.13229 0.64786,0.64786 0.74416,2.38125 0.13229,2.38125 -0.24336,0 -0.39687,-0.24748 -0.39687,-0.63982 z M 114.03252,-87.09102 c 0,-0.26001 1.12723,-1.14388 2.24896,-1.76342 1.0097,-0.55767 1.40788,-0.5889 8.6651,-0.67957 4.3166,-0.0539 7.60678,-0.19905 7.60678,-0.33551 0,-0.13226 -0.20836,-0.24163 -0.46302,-0.24305 -0.25466,-10e-4 -1.09844,-0.29839 -1.87505,-0.65993 -2.19029,-1.01965 -4.37687,-3.43923 -6.45487,-7.1427 -0.97981,-1.74625 -2.06648,-3.49202 -2.41482,-3.87948 -1.20669,-1.34223 -3.04401,-2.55026 -4.16743,-2.74006 -1.22332,-0.20668 -2.3519,-1.13688 -2.3519,-1.9385 0,-0.28176 0.23551,-1.03131 0.52336,-1.66567 0.28784,-0.63435 0.52597,-1.5001 0.52916,-1.92388 0.008,-1.05825 -1.12922,-2.90667 -2.19262,-3.56389 -0.4841,-0.29919 -3.43195,-1.51693 -6.55077,-2.70609 -3.11882,-1.18916 -6.20637,-2.36733 -6.86121,-2.61815 -0.654846,-0.25083 -3.929065,-1.49661 -7.276044,-2.76839 -7.880697,-2.99452 -8.056097,-3.08766 -7.181312,-3.81367 0.27311,-0.22666 1.093148,-0.0757 3.418076,0.62906 1.682319,0.50999 3.2768,0.92939 3.54329,0.93199 0.266491,0.003 2.410754,-0.8449 4.76503,-1.88332 l 4.2805,-1.88805 1.67262,-2.77612 c 1.87378,-3.10998 5.66431,-8.26283 8.77801,-11.93285 2.8757,-3.38948 9.41511,-10.32492 12.23463,-12.97556 1.29571,-1.21809 3.78458,-3.60281 5.53083,-5.29937 1.74625,-1.69657 5.43718,-5.21703 8.20208,-7.82325 2.7649,-2.60623 6.04264,-5.69838 7.28387,-6.87146 1.24124,-1.17308 3.73352,-3.50209 5.53842,-5.17558 5.63257,-5.2225 5.62552,-5.2141 6.29385,-7.48821 0.77031,-2.62107 0.76796,-2.64592 -0.22978,-2.42678 -0.61846,0.13584 -0.79627,0.0947 -0.70998,-0.16416 0.0633,-0.18997 2.51325,-1.30485 5.44428,-2.47751 2.93104,-1.17266 5.44826,-2.25122 5.59384,-2.3968 0.15242,-0.15241 0.40367,-4.07948 0.59234,-9.25822 0.18021,-4.94644 0.41138,-8.69587 0.51372,-8.33207 0.10234,0.3638 0.19793,1.04112 0.21244,1.50514 0.0246,0.78523 0.10499,0.85548 1.16107,1.01385 0.81481,0.12219 1.59562,0.0149 2.76977,-0.38067 2.19756,-0.7403 3.20842,-0.70395 4.45913,0.16033 3.64028,2.51556 3.63377,2.5122 4.5943,2.37017 3.31407,-0.49003 3.62654,-0.49272 4.52694,-0.0389 1.06148,0.535 2.91984,2.24841 2.74516,2.53104 -0.0665,0.10769 -0.67585,0.0288 -1.35401,-0.17529 -2.02271,-0.60874 -3.24948,-0.4777 -5.19543,0.55497 -2.65389,1.40835 -3.32453,1.3024 -6.1361,-0.96935 -1.96193,-1.58524 -2.52402,-1.61708 -5.22291,-0.29588 l -2.04409,1.00064 -0.005,2.24896 c -0.003,1.23693 0.0711,3.39847 0.1641,4.80342 l 0.16918,2.55445 0.95393,-0.33791 c 0.52467,-0.18586 3.25879,-1.25698 6.07583,-2.38028 3.43691,-1.37047 5.20951,-1.95474 5.38822,-1.77603 0.17871,0.17871 -0.002,0.40487 -0.54811,0.68748 -0.94386,0.48809 -1.22238,1.2905 -1.58923,4.57856 -0.56211,5.03816 0.62189,10.14998 3.83161,16.54271 0.63932,1.2733 1.09575,2.3151 1.01431,2.3151 -0.0815,0 -0.4696,-0.16614 -0.86255,-0.36919 -1.65333,-0.85435 -6.65024,-2.29911 -8.76226,-2.53345 -1.24903,-0.13858 -3.1044,-0.16726 -4.12304,-0.0637 l -1.85209,0.18825 -0.0726,4.61053 c -0.0399,2.53579 0.0196,4.69412 0.1323,4.7963 0.11268,0.10217 1.5741,-0.31392 3.24759,-0.92464 1.67349,-0.61072 5.69536,-2.05468 8.9375,-3.2088 l 5.89479,-2.09839 -0.20625,-1.71979 c -0.40754,-3.39825 -0.1732,-7.85641 0.56227,-10.69681 0.37412,-1.44486 0.63866,-2.66859 0.58786,-2.71939 -0.0508,-0.0508 -0.42592,0.0345 -0.8336,0.18946 -0.83319,0.31678 -1.41463,-0.011 -0.8503,-0.47936 0.196,-0.16267 2.37393,-1.06733 4.83986,-2.01036 7.52917,-2.87934 6.67512,-2.35156 6.83957,-4.2267 0.0782,-0.89121 0.21622,-4.58644 0.3068,-8.21161 0.16481,-6.59588 0.39448,-8.72584 0.64442,-5.97648 l 0.13229,1.4552 1.01442,0.0834 c 0.55793,0.0459 1.5614,-0.10294 2.22994,-0.33073 1.79609,-0.61199 2.50673,-0.51866 3.93664,0.51701 2.03861,1.47654 2.86671,1.7781 4.01045,1.46044 1.40446,-0.39006 2.34973,-0.33917 3.1715,0.17076 2.02205,1.25474 2.60323,2.38554 0.91674,1.78368 -1.51923,-0.54217 -2.44652,-0.44887 -4.0349,0.406 -2.1119,1.13662 -3.53301,0.98602 -4.89479,-0.51873 -0.62422,-0.68975 -1.77646,-1.32292 -2.40746,-1.32292 -0.24714,0 -1.21865,0.38696 -2.15889,0.8599 l -1.70954,0.85989 0.18368,4.63021 c 0.10103,2.54662 0.27528,4.72589 0.38724,4.84284 0.11195,0.11694 0.60793,0.0333 1.10218,-0.18577 0.49424,-0.21912 2.02972,-0.83342 3.41216,-1.36511 1.38245,-0.53169 3.85036,-1.48989 5.48425,-2.12934 1.63388,-0.63944 3.15193,-1.16262 3.37343,-1.16262 0.72751,0 0.42143,0.5162 -0.58786,0.99144 -0.85842,0.4042 -1.03156,0.64279 -1.29752,1.78802 -0.1688,0.72687 -0.31834,2.64793 -0.33231,4.26902 -0.0435,5.04427 1.29607,10.0015 4.04892,14.98389 0.78217,1.41563 1.36384,2.57388 1.29261,2.57388 -0.0712,0 -1.21863,-0.36694 -2.54978,-0.81543 -3.8655,-1.30235 -6.61345,-1.81864 -9.69632,-1.82176 -1.52797,-0.002 -3.22461,0.071 -3.77031,0.16118 l -0.99219,0.164 v 4.86017 c 0,2.6731 0.10366,4.86018 0.23036,4.86018 0.22661,0 17.18496,-5.75262 18.63843,-6.32254 0.93119,-0.36512 1.23954,-0.3686 1.23954,-0.014 0,0.15294 -0.41075,0.4497 -0.91278,0.65946 -1.02698,0.42911 -1.5406,1.37888 -2.78386,5.14787 -3.51322,10.65042 -2.79062,24.92216 1.98935,39.29062 2.57778,7.74875 6.96414,17.59479 7.83839,17.59479 0.52337,0 3.55306,-0.73743 15.12687,-3.68192 4.05203,-1.03088 7.56438,-1.86679 7.80521,-1.85758 0.8344,0.0319 -7.13086,2.58458 -21.12568,6.77025 -4.14734,1.24042 -8.00721,2.40038 -8.57749,2.57769 -0.83982,0.26112 -1.10078,0.50701 -1.3732,1.29387 -0.18498,0.53432 -0.25238,1.02337 -0.14977,1.08679 0.1026,0.0634 1.41653,-0.18057 2.91983,-0.54218 1.5033,-0.36161 2.80215,-0.58859 2.88633,-0.50441 0.16976,0.16976 -0.9019,6.21362 -1.27642,7.1987 -0.13468,0.35422 -0.45503,0.62338 -0.74194,0.62338 -0.77418,0 -2.2979,1.8769 -3.48911,4.29785 -0.65139,1.32385 -1.59235,2.71091 -2.38845,3.52078 -1.28185,1.30403 -3.69689,2.7647 -4.57111,2.7647 -0.24012,0 -0.43658,0.11141 -0.43658,0.24757 0,0.14665 3.37053,0.28147 8.26823,0.33073 l 8.26823,0.0832 1.19094,0.70018 c 0.65502,0.3851 1.41762,0.95065 1.69466,1.25677 l 0.5037,0.55659 h -57.98473 c -31.89161,0 -57.98476,-0.0702 -57.98476,-0.15603 z m 56.28806,-20.64607 c 0.3263,-0.20575 0.89907,-0.97755 1.27282,-1.71512 l 0.67956,-1.34104 1.37301,0.089 c 1.25486,0.0814 1.3803,0.0377 1.45771,-0.50747 0.0508,-0.35779 -0.0815,-0.66029 -0.33072,-0.75591 -0.71271,-0.2735 -0.46174,-0.85835 0.40591,-0.94594 0.74399,-0.0751 0.99322,-0.3772 2.64584,-3.20707 1.00346,-1.71829 1.82448,-3.22121 1.82448,-3.33982 0,-0.37949 -4.79136,-1.14426 -8.00365,-1.2775 l -3.10885,-0.12895 v 6.92961 6.92961 l 0.59531,-0.17767 c 0.32742,-0.0977 0.86229,-0.34601 1.18858,-0.55176 z m -7.46155,-0.38217 c 0.0959,-0.1552 0.10149,-0.35509 0.0124,-0.4442 -0.17637,-0.17636 -3.88811,-0.8244 -4.85192,-0.84709 -0.94699,-0.0223 -0.72251,0.73544 0.26459,0.89308 0.47294,0.0755 1.51474,0.24538 2.3151,0.37743 2.0346,0.3357 2.06503,0.33598 2.25984,0.0208 z m 43.50006,-0.2689 c 1.50496,-0.32276 1.7795,-0.76997 0.47604,-0.77544 -0.47294,-0.002 -1.11139,-0.0711 -1.41877,-0.15362 -0.41133,-0.11041 -0.59582,-0.009 -0.69883,0.38516 -0.12108,0.46302 -0.0191,0.8304 0.23045,0.8304 0.0413,0 0.67634,-0.12892 1.41111,-0.2865 z m -3.25328,-0.38637 c 0.22339,-0.58215 0.13775,-0.61744 -1.97471,-0.81377 -1.77858,-0.16531 -1.90274,-0.14271 -1.90274,0.34622 0,0.78724 0.20605,0.87584 2.03678,0.87584 1.27373,0 1.72217,-0.0995 1.84067,-0.40829 z m -47.31861,-0.5839 c -0.096,-0.50331 -2.13031,-1.02544 -4.58072,-1.17567 -1.03102,-0.0632 -1.32291,0.006 -1.32291,0.31252 0,0.29074 0.65698,0.50566 2.51354,0.82226 3.43495,0.58577 3.49413,0.58648 3.39009,0.0409 z m 37.3074,-0.25406 c -0.0511,-0.2655 -0.43817,-0.52429 -0.93657,-0.62623 -0.95502,-0.19532 -1.13175,-0.10262 -1.13175,0.59366 0,0.39098 0.20905,0.48507 1.07773,0.48507 0.87445,0 1.0613,-0.0854 0.99059,-0.4525 z m -3.65582,-0.32504 c 0,-0.55349 -0.76696,-0.73432 -3.70417,-0.87336 -1.30178,-0.0616 -1.45521,-0.0131 -1.45521,0.46028 0,0.43769 0.22868,0.55628 1.32292,0.68603 0.7276,0.0863 1.88846,0.17558 2.57969,0.19844 1.08143,0.0358 1.25677,-0.03 1.25677,-0.47139 z m 28.11895,-1.52345 c 3.3803,-0.87631 5.72904,-1.61164 5.68273,-1.77914 -0.0434,-0.15702 -1.86225,-1.18164 -4.04186,-2.27693 -4.02547,-2.02285 -8.85472,-3.82578 -12.70503,-4.74323 -2.37906,-0.56689 -6.56198,-1.17266 -7.02699,-1.01766 -0.21587,0.072 -0.28927,1.57864 -0.25539,5.2427 0.0261,2.82795 0.0941,5.18829 0.15101,5.2452 0.0569,0.0569 2.34204,0.26691 5.07805,0.46664 2.73601,0.19973 5.27223,0.40868 5.63603,0.46433 0.83921,0.12836 0.65415,0.16798 7.48145,-1.60191 z m -54.57729,-3.50423 c 0,-2.75631 -0.0997,-5.07306 -0.22146,-5.14834 -0.12181,-0.0753 -0.46884,0.0364 -0.77118,0.24816 -0.70442,0.49339 -5.9453,7.98057 -5.9872,8.55337 -0.0256,0.3496 0.49953,0.51499 2.74651,0.86504 1.52797,0.23804 3.10554,0.4464 3.50573,0.46302 l 0.7276,0.0302 z m 19.44688,4.35001 c 0,-0.47755 -0.26675,-0.55561 -2.7346,-0.80025 -2.47899,-0.24574 -2.75727,-0.22869 -2.97727,0.18238 -0.33964,0.63462 0.0113,0.78536 2.36844,1.01732 2.89337,0.28472 3.34343,0.23095 3.34343,-0.39945 z m -34.13125,-0.11797 c 0,-0.48166 -4.6127,-1.46058 -5.01003,-1.06325 -0.45165,0.45165 0.30905,0.87791 2.16608,1.21376 2.16039,0.39072 2.84395,0.35454 2.84395,-0.15051 z m 7.14707,-1.60661 c 0.40521,-0.58472 0.65021,-1.15027 0.54444,-1.25677 -0.10576,-0.10651 -1.03998,-0.32321 -2.07604,-0.48156 l -1.88374,-0.28791 -1.14368,1.0542 c -0.62902,0.57981 -1.07959,1.11828 -1.00126,1.19661 0.21137,0.21138 3.05023,0.79083 3.99962,0.81638 0.6748,0.0182 0.95724,-0.17022 1.56066,-1.04095 z m 37.69575,-0.45823 c -0.002,-0.83674 -0.0942,-1.6631 -0.20432,-1.83633 -0.25054,-0.39406 -2.94544,-1.66333 -3.53895,-1.66681 -0.51096,-0.003 -2.70212,3.85454 -2.49543,4.39318 0.12379,0.32258 0.87628,0.41003 4.98598,0.57949 l 1.25677,0.0518 z m -51.7638,0.87344 c 0.17101,-0.44565 -0.10484,-0.55297 -2.68473,-1.04455 -1.5653,-0.29825 -1.89525,-0.2986 -2.00902,-0.002 -0.17374,0.45276 0.21071,0.69527 1.69285,1.06785 1.73119,0.43519 2.82875,0.42744 3.0009,-0.0212 z m 45.13312,-2.13021 c 1.55992,-2.87389 1.56222,-2.91525 0.19095,-3.43894 -0.64434,-0.24608 -1.38644,-0.40602 -1.64911,-0.35544 -0.45378,0.0874 -3.24357,4.48892 -3.27141,5.16139 -0.0193,0.46625 0.4943,0.59217 2.18648,0.53606 l 1.5378,-0.051 z m -35.55778,-0.50018 2.28076,-2.21997 -0.55471,-1.08732 c -0.30509,-0.59803 -0.62087,-1.08732 -0.70172,-1.08732 -0.18266,0 -3.28182,2.37396 -3.28182,2.51388 0,0.0559 0.25289,0.53031 0.56197,1.05417 0.30908,0.52385 0.48286,1.03156 0.38619,1.12824 -0.0967,0.0967 -0.69781,-0.1094 -1.33584,-0.45794 l -1.16006,-0.63371 -1.07225,0.74307 c -0.58974,0.40869 -1.20741,0.90593 -1.3726,1.10497 -0.34064,0.41045 -0.22561,0.47788 1.47905,0.8671 2.19777,0.50181 2.33414,0.44678 4.77103,-1.92517 z m 30.16243,1.14824 c 0.82961,-1.3142 1.30501,-2.3332 1.15739,-2.48082 -0.0609,-0.0609 -0.82439,-0.18963 -1.69663,-0.28606 l -1.58589,-0.17533 -0.92604,1.54395 c -0.50932,0.84917 -0.92604,1.66301 -0.92604,1.80853 0,0.14552 0.59531,0.33518 1.32292,0.42146 0.7276,0.0863 1.47025,0.17557 1.65032,0.19843 0.18008,0.0229 0.63186,-0.44071 1.00397,-1.03016 z m -46.226,0.21183 c -0.0716,-0.50381 -0.34595,-0.64702 -1.78539,-0.93175 -1.15788,-0.22905 -1.78713,-0.25016 -1.97114,-0.0661 -0.42067,0.42066 0.0693,0.73094 1.8199,1.1524 0.87313,0.21021 1.68508,0.39539 1.80434,0.41151 0.11926,0.0161 0.1788,-0.23858 0.13229,-0.56601 z m 9.80171,-1.30355 c 0.7472,-0.60782 1.35607,-1.17336 1.35306,-1.25677 -0.01,-0.26589 -4.70911,-2.38123 -7.09019,-3.19144 -5.8503,-1.9907 -11.29801,-2.08712 -14.87308,-0.26326 l -1.05001,0.53568 0.002,-0.73299 c 0.004,-1.40153 0.55963,-4.19168 1.46861,-7.37246 3.35504,-11.74019 10.79089,-22.37119 26.07729,-37.28258 4.56525,-4.45325 7.58813,-7.15199 7.78759,-6.95253 0.0733,0.0733 -0.38334,0.71544 -1.01485,1.42689 -7.15664,8.06259 -11.62968,16.88661 -13.06196,25.76749 -0.88977,5.51703 -0.45681,13.23086 1.07195,19.09847 0.98288,3.77243 2.40518,7.22758 2.97521,7.22758 0.16376,0 1.01545,-0.55735 1.89264,-1.23856 l 1.5949,-1.23855 -0.65122,-2.06874 c -1.32744,-4.21691 -1.74023,-7.03067 -1.87723,-12.79593 -0.11108,-4.67392 -0.0469,-6.00853 0.45789,-9.525 0.68148,-4.74721 2.16183,-10.73466 3.72585,-15.06968 1.47252,-4.0814 1.47945,-4.12255 0.72978,-4.3329 -0.59609,-0.16727 -0.60061,-0.18784 -0.12189,-0.55424 0.27345,-0.20929 1.7022,-0.79 3.175,-1.29047 4.22501,-1.43569 8.69181,-3.05548 8.84307,-3.20674 0.0761,-0.0761 0.19457,-2.28197 0.26332,-4.90199 0.0973,-3.70887 0.0515,-4.76366 -0.20676,-4.76366 -1.23935,0 -5.48357,3.61702 -6.46012,5.50545 -0.2402,0.4645 -0.53808,0.84455 -0.66194,0.84455 -0.24527,0 -1.03835,-1.74985 -1.73441,-3.82679 -0.5277,-1.57458 -0.9586,-6.10086 -0.74916,-7.86927 0.0937,-0.79135 0.0477,-1.26852 -0.12235,-1.26852 -0.57532,0 -19.97049,20.04728 -25.46968,26.32604 -10.29,11.74869 -14.2742,20.33947 -13.47904,29.06361 0.26387,2.89501 0.81949,4.7746 2.26382,7.65817 0.64077,1.27928 1.16503,2.43679 1.16503,2.57226 0,0.13546 -1.18679,-0.47064 -2.6373,-1.3469 -1.45052,-0.87626 -3.50435,-1.91152 -4.56407,-2.30056 -1.76487,-0.64793 -2.26021,-0.70796 -5.89551,-0.71447 -3.54906,-0.006 -4.15061,0.0602 -5.68854,0.62931 -0.94588,0.35003 -1.8329,0.73698 -1.97114,0.85989 -0.377104,0.33528 -0.674691,0.26967 -0.674691,-0.14873 0,-0.20472 0.359896,-1.17436 0.799771,-2.15475 0.43987,-0.98039 0.7457,-1.8366 0.67961,-1.90269 -0.0661,-0.0661 -1.61945,0.56733 -3.451925,1.40759 -1.832476,0.84026 -3.23963,1.60757 -3.127011,1.70514 0.11262,0.0976 2.050232,0.74496 4.305805,1.43866 2.255571,0.69369 4.577291,1.42137 5.159371,1.61707 2.9568,0.99406 10.53596,3.18553 11.88059,3.43519 l 1.03267,0.19174 -0.16817,-0.84086 c -0.28593,-1.4296 -0.89508,-1.49574 11.99346,1.30209 1.23693,0.26851 3.73724,0.8076 5.55625,1.19798 1.81901,0.39039 4.25979,0.92111 5.42396,1.1794 3.24723,0.72043 3.57242,0.68374 5.12375,-0.57822 z m -15.16367,0.28831 c 0.28466,-0.46058 -0.22745,-0.77573 -1.88769,-1.16166 -1.68148,-0.39087 -2.03795,-0.3258 -1.90812,0.34834 0.12958,0.67284 3.44375,1.38296 3.79581,0.81332 z m 29.07169,-2.59692 c 0.81039,-1.14994 1.47343,-2.21509 1.47343,-2.367 0,-0.35181 -2.50112,0.49785 -4.22104,1.43395 -1.61587,0.87947 -3.1743,2.42103 -2.63567,2.60715 0.49065,0.16954 1.72168,0.32765 2.93589,0.37707 0.92968,0.0378 1.04095,-0.0554 2.44739,-2.05117 z m -34.55915,1.10444 c -0.0636,-0.33026 -0.62798,-0.58268 -2.03273,-0.90914 -2.85191,-0.66277 -3.58266,-0.70002 -3.6818,-0.1877 -0.0654,0.33789 0.38841,0.54437 2.11265,0.96124 2.90025,0.70121 3.71672,0.73194 3.60188,0.1356 z m 59.44141,-1.91091 c 0.22202,-0.42933 0.40367,-0.83192 0.40367,-0.89463 0,-0.15248 -2.22516,-0.70645 -2.82914,-0.70433 -0.44457,0.002 -1.56131,1.5169 -1.30602,1.77219 0.10164,0.10164 2.14618,0.49387 3.00389,0.57626 0.17816,0.0171 0.50559,-0.32015 0.7276,-0.74949 z m 10.85278,-2.42943 c -0.52469,-1.36317 -1.07809,-2.77615 -1.22977,-3.13996 -0.85479,-2.05014 -4.29427,-11.74425 -5.21004,-14.68437 -2.73708,-8.78762 -3.53374,-13.8157 -3.4574,-21.82147 l 0.0495,-5.18948 5.77564,-1.93406 c 4.00367,-1.34068 5.81323,-2.06765 5.89816,-2.36952 0.22069,-0.78441 0.49032,-9.56359 0.29372,-9.56359 -0.10544,0 -0.91801,0.38695 -1.80571,0.85989 -1.93265,1.02966 -4.1307,3.10537 -4.91373,4.64023 -0.3127,0.61295 -0.67053,1.11446 -0.79517,1.11446 -0.22963,0 -1.35013,-2.38828 -1.35013,-2.87771 0,-0.52432 -0.52643,-0.57587 -1.2226,-0.11972 -1.25397,0.82163 -2.93733,5.26733 -3.82054,10.08991 -1.11893,6.10963 -0.70696,14.10577 1.09998,21.35023 1.3484,5.40604 4.93165,14.57763 7.70108,19.71145 0.58876,1.09141 1.5516,2.87735 2.13966,3.96875 1.9089,3.54283 2.21954,3.52998 0.84736,-0.035 z m 29.55308,2.21786 c -3.53862,-9.78871 -6.44313,-21.88272 -7.76808,-32.34532 -0.38822,-3.0656 -0.49072,-15.77229 -0.13747,-17.04274 0.193,-0.69413 0.31898,-0.45709 1.26566,2.38125 0.57823,1.73367 1.80111,4.69993 2.71752,6.5917 4.17323,8.61496 9.18513,15.10833 21.84436,28.30134 4.26692,4.44685 9.01575,9.66493 9.01477,9.90559 -3.5e-4,0.0867 -2.41137,0.16567 -5.35781,0.17546 -6.92877,0.023 -12.40558,0.87426 -18.52837,2.87976 -1.13228,0.37087 -2.15813,0.67431 -2.27965,0.67431 -0.12153,0 -0.46845,-0.68461 -0.77093,-1.52135 z"
       id="path1-9" /><path
       style="fill:#000000"
       d="m 390.24802,495.11292 c -2.16489,-0.1277 -8.67085,-0.85222 -10.18646,-1.1344 -0.7276,-0.13546 -2.09682,-0.3785 -3.04271,-0.5401 -4.72736,-0.8076 -10.69634,-2.37926 -15.875,-4.17996 -5.45687,-1.89744 -5.79183,-2.02632 -9.21788,-3.54666 -4.24894,-1.88551 -8.95854,-4.33336 -12.9512,-6.73149 -4.17251,-2.50616 -4.89279,-2.99283 -9.25439,-6.25292 -20.78631,-15.53681 -35.6665,-37.55344 -42.14805,-62.36199 -4.39715,-16.83035 -4.87178,-35.99206 -1.29436,-52.25521 2.30097,-10.46034 5.0105,-18.14467 9.74915,-27.64895 13.95564,-27.99079 39.72284,-49.48041 69.74694,-58.16833 4.66737,-1.35057 8.35328,-2.18344 14.15521,-3.19851 4.58091,-0.80145 11.77272,-1.3403 17.83165,-1.33605 7.74441,0.005 15.3223,0.77741 23.04648,2.34781 6.76194,1.37477 15.90778,4.21659 20.85928,6.48145 0.83253,0.38081 1.57076,0.69238 1.64052,0.69238 0.0697,0 1.76287,0.7967 3.76247,1.77045 13.47829,6.56353 25.2477,15.41043 35.1395,26.41387 12.77533,14.211 21.65555,31.02837 26.05269,49.33859 0.95753,3.9873 0.94365,3.91773 1.83476,9.19427 1.77199,10.49253 1.75709,24.53967 -0.0374,35.25573 -2.15742,12.88339 -5.52061,23.15124 -11.22623,34.27374 -3.50879,6.84001 -7.37771,12.79965 -12.18861,18.77522 -3.26029,4.04957 -4.02654,4.93548 -6.55568,7.57944 -7.77833,8.13147 -17.10087,15.43325 -26.34068,20.63106 -2.73146,1.53657 -10.12186,5.25929 -10.44082,5.25929 -0.0698,0 -0.75544,0.2875 -1.52373,0.63889 -7.63039,3.48987 -20.13765,6.8193 -30.36878,8.08417 -5.75645,0.71167 -15.00367,0.98175 -21.16667,0.61821 z m 14.97668,-13.31575 c 17.84289,-1.41363 34.0883,-7.07946 48.69802,-16.98416 18.41163,-12.48223 32.30355,-30.82159 39.27211,-51.84494 3.66086,-11.0444 5.25787,-22.27233 4.905,-34.48496 -0.20495,-7.09279 -0.89513,-12.65245 -2.43057,-19.57917 -1.85387,-8.36318 -5.99683,-19.03428 -10.36069,-26.68618 -2.80404,-4.9168 -7.8316,-12.14639 -10.78111,-15.50314 -0.44187,-0.50288 -1.32946,-1.51491 -1.97243,-2.24896 -0.64297,-0.73405 -2.78609,-2.92509 -4.7625,-4.86898 -13.70317,-13.47774 -31.26346,-22.81223 -50.06496,-26.61294 -12.12003,-2.45005 -26.34081,-2.61595 -37.93059,-0.44249 -0.72761,0.13644 -1.97776,0.37172 -2.77813,0.52284 -4.9545,0.93545 -13.12217,3.51925 -18.91771,5.98452 -23.27381,9.90008 -42.99755,29.62431 -52.92068,52.922 -2.40328,5.64245 -5.06959,14.0217 -5.93551,18.65313 -1.58902,8.49901 -2.12474,13.66272 -2.12736,20.5052 -0.006,15.86614 3.24061,30.12987 10.06977,44.23974 7.714,15.93803 20.01192,30.01084 34.90649,39.94433 9.2325,6.15734 19.47909,10.7397 30.42709,13.60722 3.25323,0.85209 3.7703,0.9604 8.46666,1.77342 7.22544,1.25085 16.84777,1.68895 24.2371,1.10352 z m -40.57512,-35.38819 -0.85989,-0.0938 v -5.66848 -5.66848 l -9.59115,-0.0694 -9.59115,-0.0695 v -8.99583 -8.99584 l 6.54844,-0.0708 6.54844,-0.0708 v -35.18034 -35.18034 l -6.54844,-0.0708 -6.54844,-0.0708 v -8.99583 -8.99583 l 9.59115,-0.0695 9.59115,-0.0694 v -5.68525 -5.68524 h 9.26041 9.26042 v 5.69301 5.69301 l 6.81302,-0.0706 6.81302,-0.0706 0.0714,-5.6224 0.0714,-5.6224 h 9.1177 9.1177 l 0.0713,5.75469 0.0713,5.75469 1.05833,0.0641 c 12.61722,0.76378 21.49408,4.61654 25.97942,11.27566 3.01232,4.4722 3.91226,7.8962 3.90414,14.85402 -0.006,5.00454 -0.22299,6.39688 -1.50612,9.65729 -1.63989,4.16694 -5.19238,8.1348 -9.59202,10.71357 -1.45521,0.85294 -2.79865,1.68682 -2.98542,1.85306 -0.26308,0.23417 0.25152,0.52612 2.28445,1.296 11.27063,4.26829 17.21466,13.23465 17.23255,25.99472 0.01,7.03561 -1.73626,12.43324 -5.74536,17.76009 -5.38272,7.15196 -16.07579,12.0652 -28.24872,12.97971 l -2.38125,0.17889 -0.0712,5.72481 -0.0712,5.72482 -0.60477,0.11561 c -0.33262,0.0636 -4.40823,0.10679 -9.0569,0.096 l -8.45213,-0.0196 -0.1323,-5.68855 -0.13229,-5.68854 -6.81302,-0.0706 -6.81302,-0.0706 v 5.66703 5.66703 l -1.52135,0.15249 c -1.5751,0.15788 -14.62111,0.12532 -16.13959,-0.0403 z m 47.69115,-29.95678 c 7.57734,-0.80837 12.08613,-3.99833 13.65186,-9.65867 0.47272,-1.70895 0.47904,-6.98745 0.0104,-8.73125 -1.28965,-4.79933 -4.21407,-7.92888 -8.8849,-9.50814 -3.33346,-1.12708 -4.66761,-1.2074 -20.0571,-1.20744 l -14.75052,-5e-5 v 14.50799 c 0,7.97939 0.0794,14.58736 0.17639,14.68437 0.27587,0.27587 27.1877,0.19761 29.85382,-0.0868 z m 0.33352,-45.77995 c 4.84054,-1.31892 7.36406,-3.62607 8.82043,-8.06414 0.20965,-0.63887 0.34162,-2.26429 0.33298,-4.10104 -0.0126,-2.68554 -0.099,-3.24994 -0.73564,-4.80812 -1.40188,-3.43098 -4.55189,-5.72411 -9.28046,-6.75593 -1.85849,-0.40554 -3.77869,-0.46264 -15.74271,-0.46818 l -13.62604,-0.006 -0.069,12.17083 c -0.0379,6.69396 -0.0234,12.2899 0.0324,12.43542 0.0663,0.17306 4.98628,0.23973 14.22416,0.19274 13.1166,-0.0667 14.25973,-0.10913 16.04388,-0.59527 z"
       id="path4-3" /><g
       id="g6"
       style="fill:#000000;fill-opacity:1"><path
         style="fill:#000000;fill-opacity:1"
         d="m 49.632101,216.58314 c 2.972979,-5.29371 17.157054,-0.11771 15.982028,-3.78119 -5.533111,-4.44057 -9.433583,-12.64023 -14.411339,-16.01082 -0.07061,-12.00861 -16.523797,-10.18345 -24.31602,-15.47449 -6.226514,-1.77705 -6.040202,-4.135 0.189657,-1.90161 17.411626,9.73233 43.107668,6.65572 62.338516,6.3038 40.897737,18.27075 85.355427,1.2012 66.278257,9.94429 7.33687,3.14703 -4.56186,14.94046 -9.071,18.03354 5.24943,1.93346 7.33965,-1.81405 10.15166,3.1411 -38.32233,0.28389 -68.790983,-0.0769 -107.141759,-0.25463 z M 51.32623,186.72362 C 0,0 0,0 51.32623,186.72362 Z"
         id="path1"
         sodipodi:nodetypes="sccccccccsscc" /><path
         style="fill:#000000;stroke-width:0.999996;fill-opacity:1"
         d="m 129.94797,208.2495 0.77919,0.122 3.97988,-15.00781 1.26709,-4.77808 8.47262,2.18424 8.47265,2.18415 2.01086,-7.58276 2.01085,-7.58277 -5.75835,-1.59088 -5.75835,-1.59088 c 0,0 -6.50475,-20.72556 -4.1022,-30.69949 2.70377,-11.22445 19.83006,-28.60894 19.83006,-28.60894 l 5.78998,1.4716 5.78999,1.4716 2.01085,-7.58276 2.01086,-7.58277 -8.44158,-2.30131 -8.4416,-2.301221 1.27088,-4.792403 4.81941,-18.173559 -8.16548,-2.165385 -8.16549,-2.165385 -4.82114,18.180109 -1.27257,4.798751 -5.99169,-1.65262 -5.99168,-1.652618 1.19386,-4.75592 4.74244,-18.137277 -8.03965,-2.132013 -8.03965,-2.132016 -4.89775,18.215439 -1.34919,4.834082 -0.94752,-0.193439 c -11.29612,-2.30651 -19.984618,-1.134639 -25.428151,3.429651 -3.655831,3.065332 -5.214737,5.741058 -6.762868,11.607834 -1.113843,4.21972 -1.233285,5.44421 -0.830678,8.49251 0.514555,3.89586 2.76006,8.07113 6.06306,11.27361 1.092487,1.05924 2.090685,2.07626 2.21821,2.26007 0.17963,0.2589 -0.339387,0.38466 -2.304041,0.55825 -10.892114,0.96239 -18.137599,7.1304 -21.005657,17.88194 -1.581383,5.92815 -1.248263,10.88621 1.096086,16.31378 3.147592,7.28719 11.478072,13.92905 22.007284,17.54633 l 2.059707,0.7076 -1.216945,4.84219 -3.92975,15.07195 0.507425,0.23886 c 0.279076,0.13143 3.863142,1.12078 7.964579,2.1987 l 7.457149,1.95986 4.10103,-14.9938 1.38822,-4.76406 6.02325,1.53356 6.02327,1.53357 -1.26676,4.77685 -3.97957,15.0066 1.30738,0.48428 c 1.35357,0.50139 12.86433,3.52452 14.24028,3.74003 z"
         id="path4"
         sodipodi:nodetypes="ccccccccccacccccccccccccccccccccsscsssscsscccsscccccccscc" /><path
         d="m 117.96822,85.549288 c 5.99583,-24.554151 5.65796,-21.390299 3.29431,-18.844904 l -1.24706,1.342971 -3.24781,-0.528429 c -1.78632,-0.29052 -4.77032,-1.675867 -6.63115,-3.078469 -4.99926,-3.768246 -7.30899,-4.008274 -12.794929,-1.329618 -7.82125,3.818907 -10.703412,4.258144 -13.958158,2.127218 -3.996691,-2.616644 -6.996591,-3.209075 -10.065045,-1.987605 -7.550249,3.005547 -10.481915,6.741229 -4.624334,5.892514 5.276649,-0.764552 8.077857,0.350664 12.188828,4.852703 5.465916,5.985853 10.049194,6.600221 15.78639,2.116057 2.629842,-2.055452 6.851348,-3.463 8.820278,-2.940863 0.77117,0.204504 3.41997,2.451322 5.88619,4.992885 l 4.48405,4.621016"
         style="fill:#000000;stroke-width:1;fill-opacity:1"
         id="path1-1"
         sodipodi:nodetypes="cscccccssssscc" /></g><path
       style="fill:#000000"
       d="m -25.37654,526.56057 c 2.972979,-5.29371 17.157054,-0.11771 15.982028,-3.78119 -5.533111,-4.44057 -9.433583,-12.64023 -14.411339,-16.01082 -0.07061,-12.00861 -16.523797,-10.18345 -24.31602,-15.47449 -6.226514,-1.77705 -6.040202,-4.135 0.189657,-1.90161 17.411626,9.73233 43.107668,6.65572 62.338516,6.3038 40.897737,18.27075 85.355427,1.2012 66.278257,9.94429 7.33687,3.14703 -4.56186,14.94046 -9.071,18.03354 5.24943,1.93346 7.33965,-1.81405 10.15166,3.1411 -38.32233,0.28389 -68.790983,-0.0769 -107.141759,-0.25463 z m 1.694129,-29.85952 c -51.32623,-186.72362 -51.32623,-186.72362 0,0 z"
       id="path1-12"
       sodipodi:nodetypes="sccccccccsscc" /><path
       style="fill:#000000;stroke-width:0.999996"
       d="m 49.293777,519.14547 0.77204,0.16116 4.731764,-14.78797 1.50647,-4.7081 8.351658,2.60883 8.351694,2.60874 2.390753,-7.47168 2.390746,-7.4717 -5.670781,-1.87929 -5.670781,-1.87929 c 0,0 -5.451136,-21.02726 -2.548588,-30.86732 3.266455,-11.07379 21.24777,-27.57236 21.24777,-27.57236 l 5.708389,1.76175 5.708397,1.76176 2.390743,-7.47169 2.390759,-7.47169 -8.314769,-2.72415 -8.314791,-2.72406 1.510979,-4.7222 8.849888,-28.02034 -8.045875,-2.57446 -8.045884,-2.57446 -8.851949,28.0268 -1.512983,4.72846 -5.900711,-1.95272 -5.900702,-1.95272 1.432213,-4.68965 5.651195,-17.875 -7.92187,-2.53485 -7.921873,-2.53484 -5.81025,17.94523 -1.59129,4.75988 -0.936547,-0.241 c -11.16541,-2.87332 -19.901956,-2.14116 -25.56877,2.14276 -3.805783,2.87704 -5.49766,5.47073 -7.3397245,11.25196 -1.3252547,4.15817 -1.5063044,5.37508 -1.2579567,8.4398 0.3174045,3.91685 2.349461,8.20007 5.4867352,11.56507 1.037671,1.11299 1.983304,2.17906 2.101395,2.36907 0.166343,0.26763 -0.358355,0.36705 -2.329265,0.44133 -10.92679182,0.4118 -18.4741502,6.20652 -21.880834,16.79972 -1.878367,5.84084 -1.795741,10.80939 0.271873,16.3483 2.7760405,7.43667 10.76092298,14.49024 21.094288,18.63398 l 2.0214,0.81058 -1.45962,4.77466 -4.6849327,14.85456 0.4947324,0.26415 c 0.272082,0.14537 3.8016973,1.31419 7.8435463,2.59761 l 7.348817,2.33345 4.852052,-14.76787 1.626741,-4.68799 5.938302,1.83519 5.938323,1.83519 -1.506073,4.70688 -4.731393,14.78679 1.28129,0.5496 c 1.326559,0.56902 12.670189,4.16888 14.033518,4.45351 z"
       id="path4-0"
       sodipodi:nodetypes="ccccccccccacccccccccccccccccccccsscsssscsscccsscccccccscc" /><path
       d="m 90.809317,384.40758 c -9.169138,23.55383 -8.418617,20.46177 -5.741105,18.24891 l 1.412661,-1.16754 3.150254,0.95046 c 1.732685,0.52264 4.508858,2.28795 6.169328,3.92281 4.460975,4.39227 6.719165,4.93361 12.509425,2.99876 8.2551,-2.75848 11.16999,-2.81532 14.11664,-0.27534 3.61835,3.11895 6.51444,4.1003 9.71675,3.29246 7.87963,-1.98776 11.27659,-5.30599 5.35827,-5.23404 -5.33135,0.0648 -7.9618,-1.40868 -11.4458,-6.4117 -4.6323,-6.65195 -9.09517,-7.86303 -15.37166,-4.17132 -2.87705,1.69222 -7.24687,2.53305 -9.13015,1.75682 -0.73762,-0.30403 -3.068349,-2.87931 -5.179376,-5.72278 l -3.838213,-5.16996"
       style="fill:#000000;stroke-width:1"
       id="path1-1-4"
       sodipodi:nodetypes="cscccccssssscc"
       inkscape:transform-center-x="7.3146062"
       inkscape:transform-center-y="3.6573031" /><rect
       style="fill:#ffffff;fill-opacity:0.555263;stroke-width:5.9;stroke-linecap:round"
       id="rect6"
       width="154.92273"
       height="155.4026"
       x="172.07047"
       y="-106.53972" /></g></svg>
